<svg id="Layer_1" data-name="Layer 1" xmlns="http://www.w3.org/2000/svg" viewBox="0 0 413.13 126.41"><defs><style>.cls-1{fill:none;}.cls-2{fill:#e6252e;}.cls-3{fill:#b2b8b4;}.cls-4{fill:#4e514f;}</style></defs><g id="그룹_28" data-name="그룹 28"><path id="패스_305" data-name="패스 305" class="cls-1" d="M296,23.56c-3.58,0-7,.11-10.27.29-1.35.07-2.64.16-3.94.27,0,.13.13.83.38,2.11a18.44,18.44,0,0,1,.37,3.32,13.51,13.51,0,0,1-2.2,6q-2.21,3.89-8.64,13.79c-4.29,6.6-8,12.4-11,17.37S254.05,78.14,249.87,86c-1.3,2.49-2.22,4.17-2.71,5.06s-1.29,2.31-2.37,4.29a32.37,32.37,0,0,0-2.38,5.14,10.94,10.94,0,0,0-.75,3.28,3.48,3.48,0,0,0,2.66,3.41c.3.1.6.19.9.26a25.79,25.79,0,0,0,6.72.73,87.47,87.47,0,0,0,26.92-4.62,111.13,111.13,0,0,0,26-12.43l.66-.42a74.45,74.45,0,0,0,19.95-18.61A36.49,36.49,0,0,0,333,50.4a23.24,23.24,0,0,0-8.5-19.07l-.94-.8A46,46,0,0,0,296,23.56Z"/><path id="패스_306" data-name="패스 306" class="cls-1" d="M218.39,45.1a4.39,4.39,0,0,0,4.41,4.36H223a11.37,11.37,0,0,0,3.56-.7c1.39-.46,3.65-1.41,6.78-2.79s6.2-2.69,9.14-3.83a95.61,95.61,0,0,1,9.31-3,2.52,2.52,0,0,1,.24-.33,88,88,0,0,0-11.22,1.17c-4.5.75-7.06,1.12-7.61,1.12-.81,0-1.21-.22-1.21-.66a1,1,0,0,1,.27-.56c-2.47.75-4.69,1.5-6.67,2.27C223.27,43,220.85,44,218.39,45.1Z"/><path id="패스_307" data-name="패스 307" class="cls-1" d="M318.76,90.54a17.72,17.72,0,0,1,3.28-6,80.64,80.64,0,0,1,7.76-8.14c2.33-2.13,4.69-4.11,7-6a56.15,56.15,0,0,0,6.29-25.53,50,50,0,0,0-3.32-18.7,38.7,38.7,0,0,0-9.48-14.06A42.81,42.81,0,0,0,315,3.17,61.66,61.66,0,0,0,294.8,0c-3.05,0-6.15.18-9.25.47A57.77,57.77,0,0,1,298,3.17a42.65,42.65,0,0,1,15.33,8.93,38.08,38.08,0,0,1,9.48,14.07,41.42,41.42,0,0,1,1.65,5.13A23.25,23.25,0,0,1,333,50.36a36.51,36.51,0,0,1-7.48,21.69,75.24,75.24,0,0,1-20,18.61c-.22.16-.44.29-.66.42a102.3,102.3,0,0,1-12.14,10.64,125.8,125.8,0,0,1-34.27,18,118.82,118.82,0,0,1-25.91,6,16.7,16.7,0,0,0,5.21.68,113.91,113.91,0,0,0,37.6-6.63,126.07,126.07,0,0,0,34.27-18,104.63,104.63,0,0,0,8.43-7A23.33,23.33,0,0,1,318.76,90.54Z"/><path id="패스_308" data-name="패스 308" class="cls-1" d="M247.42,27.54q-8,2.12-15.24,4.63A123.36,123.36,0,0,0,220,37c-.55.26-1,.48-1.48.72-.1,1-.17,2-.21,3.06,1.27-.18,3.12-.49,5.58-.88a92.83,92.83,0,0,1,9.68-1.12A32.82,32.82,0,0,1,237,37a125.89,125.89,0,0,1,12.14-4.86c3.16-1.1,6.48-2.14,9.9-3.13,1-1.45,2.11-2.88,3.18-4.36A106.52,106.52,0,0,0,247.42,27.54Z"/><path id="패스_309" data-name="패스 309" class="cls-1" d="M245.18,107.43c-.3-.07-.6-.16-.9-.26a3.48,3.48,0,0,1-2.66-3.41,10.94,10.94,0,0,1,.75-3.28,37.4,37.4,0,0,1,2.38-5.14c1.07-2,1.89-3.44,2.37-4.29s1.41-2.55,2.7-5.06q6.26-11.77,10.85-19.25t11-17.37c4.28-6.6,7.19-11.2,8.64-13.79a13.63,13.63,0,0,0,2.2-6,18.45,18.45,0,0,0-.38-3.32c-.24-1.28-.37-2-.37-2.11,1.27-.11,2.6-.2,3.94-.27-2.11-.18-4.31-.29-6.62-.29-5,0-9.79.2-14.21.58,0,.13.13.83.37,2.11.07.37.11.7.16,1a102.13,102.13,0,0,1,13.66-2.58,441.69,441.69,0,0,0-46.85,75.07,47.59,47.59,0,0,0-2.8,7.76.36.36,0,0,1,0,.2,30.55,30.55,0,0,0,5.57.44A76,76,0,0,0,245.18,107.43Z"/><path id="패스_310" data-name="패스 310" class="cls-2" d="M292.71,101.76a103.3,103.3,0,0,0,12.14-10.65,110.16,110.16,0,0,1-26,12.43,87.42,87.42,0,0,1-26.92,4.62,24.85,24.85,0,0,1-6.71-.73,74,74,0,0,1-10.19.73,30.51,30.51,0,0,1-5.56-.44,37.25,37.25,0,0,0-.79,8.49,19.25,19.25,0,0,0,.83,6.49,4.8,4.8,0,0,0,2.86,3l.22.07a118.82,118.82,0,0,0,25.91-6A126,126,0,0,0,292.71,101.76Z"/><path id="패스_311" data-name="패스 311" class="cls-2" d="M253.12,38.69a7.74,7.74,0,0,0-1.08.05,3.81,3.81,0,0,0-.24.32C252.26,39,252.68,38.82,253.12,38.69Z"/><path id="패스_312" data-name="패스 312" class="cls-2" d="M218.35,40.81c0,.81-.09,1.62-.09,2.48a14.07,14.07,0,0,0,.13,1.83c2.46-1,4.86-2.09,7.19-3,2-.77,4.2-1.52,6.67-2.27a6.59,6.59,0,0,1,1.31-1,87.73,87.73,0,0,0-9.68,1.12Z"/><path id="패스_313" data-name="패스 313" class="cls-2" d="M264.91,24.12q6.63-.57,14.21-.58c2.34,0,4.51.11,6.62.29,3.28-.2,6.69-.29,10.28-.29a45.94,45.94,0,0,1,27.47,7,11.83,11.83,0,0,1,.95.8,41.42,41.42,0,0,0-1.65-5.13,38.64,38.64,0,0,0-9.49-14.07A42.82,42.82,0,0,0,298,3.17,57.64,57.64,0,0,0,285.52.47a105,105,0,0,0-12.34,1.87A161.94,161.94,0,0,0,253.12,7.9a151,151,0,0,0-16.37,6.82A60.47,60.47,0,0,0,226.24,21a23.64,23.64,0,0,0-7.72,16.8c.47-.24.93-.46,1.48-.72a125.89,125.89,0,0,1,12.14-4.86q7.19-2.55,15.24-4.63a106,106,0,0,1,14.76-2.86L259,29c1.76-.52,3.5-1,5.33-1.5l1.1-.26c0-.36-.09-.66-.16-1C265,25,264.91,24.25,264.91,24.12Z"/><path id="패스_314" data-name="패스 314" class="cls-2" d="M322,84.51a18.07,18.07,0,0,0-3.28,6,21,21,0,0,0-.7,4.17,91.68,91.68,0,0,0,15.88-19.18c1-1.69,2-3.41,2.81-5.13-2.31,1.85-4.62,3.85-7,6A82.78,82.78,0,0,0,322,84.51Z"/></g><g id="그룹_29" data-name="그룹 29"><path id="패스_315" data-name="패스 315" class="cls-1" d="M296,23.56c-3.58,0-7,.11-10.27.29-1.35.07-2.64.16-3.94.27,0,.13.13.83.38,2.11a18.44,18.44,0,0,1,.37,3.32,13.51,13.51,0,0,1-2.2,6q-2.21,3.89-8.64,13.79c-4.29,6.6-8,12.4-11,17.37S254.05,78.14,249.87,86c-1.3,2.49-2.22,4.17-2.71,5.06s-1.29,2.31-2.37,4.29a32.37,32.37,0,0,0-2.38,5.14,10.94,10.94,0,0,0-.75,3.28,3.48,3.48,0,0,0,2.66,3.41c.3.1.6.19.9.26a25.79,25.79,0,0,0,6.72.73,87.47,87.47,0,0,0,26.92-4.62,111.13,111.13,0,0,0,26-12.43l.66-.42a74.45,74.45,0,0,0,19.95-18.61A36.49,36.49,0,0,0,333,50.4a23.24,23.24,0,0,0-8.5-19.07l-.94-.8A46,46,0,0,0,296,23.56Z"/><path id="패스_316" data-name="패스 316" class="cls-1" d="M218.39,45.1a4.39,4.39,0,0,0,4.41,4.36H223a11.37,11.37,0,0,0,3.56-.7c1.39-.46,3.65-1.41,6.78-2.79s6.2-2.69,9.14-3.83a95.61,95.61,0,0,1,9.31-3,2.52,2.52,0,0,1,.24-.33,88,88,0,0,0-11.22,1.17c-4.5.75-7.06,1.12-7.61,1.12-.81,0-1.21-.22-1.21-.66a1,1,0,0,1,.27-.56c-2.47.75-4.69,1.5-6.67,2.27C223.27,43,220.85,44,218.39,45.1Z"/><path id="패스_317" data-name="패스 317" class="cls-1" d="M247.42,27.54q-8,2.12-15.24,4.63A123.36,123.36,0,0,0,220,37c-.55.26-1,.48-1.48.72-.1,1-.17,2-.21,3.06,1.27-.18,3.12-.49,5.58-.88a92.83,92.83,0,0,1,9.68-1.12A32.82,32.82,0,0,1,237,37a125.89,125.89,0,0,1,12.14-4.86c3.16-1.1,6.48-2.14,9.9-3.13,1-1.45,2.11-2.88,3.18-4.36A106.52,106.52,0,0,0,247.42,27.54Z"/><path id="패스_318" data-name="패스 318" class="cls-1" d="M318.76,90.54a17.72,17.72,0,0,1,3.28-6,80.64,80.64,0,0,1,7.76-8.14c2.33-2.13,4.69-4.11,7-6a56.15,56.15,0,0,0,6.29-25.53,50,50,0,0,0-3.32-18.7,38.7,38.7,0,0,0-9.48-14.06A42.81,42.81,0,0,0,315,3.17,61.66,61.66,0,0,0,294.8,0c-3.05,0-6.15.18-9.25.47A57.77,57.77,0,0,1,298,3.17a42.65,42.65,0,0,1,15.33,8.93,38.08,38.08,0,0,1,9.48,14.07,41.42,41.42,0,0,1,1.65,5.13A23.25,23.25,0,0,1,333,50.36a36.51,36.51,0,0,1-7.48,21.69,75.24,75.24,0,0,1-20,18.61c-.22.16-.44.29-.66.42a102.3,102.3,0,0,1-12.14,10.64,125.8,125.8,0,0,1-34.27,18,118.82,118.82,0,0,1-25.91,6,16.7,16.7,0,0,0,5.21.68,113.91,113.91,0,0,0,37.6-6.63,126.07,126.07,0,0,0,34.27-18,104.63,104.63,0,0,0,8.43-7A23.33,23.33,0,0,1,318.76,90.54Z"/><path id="패스_319" data-name="패스 319" class="cls-1" d="M245.18,107.43c-.3-.07-.6-.16-.9-.26a3.48,3.48,0,0,1-2.66-3.41,10.94,10.94,0,0,1,.75-3.28,37.4,37.4,0,0,1,2.38-5.14c1.07-2,1.89-3.44,2.37-4.29s1.41-2.55,2.7-5.06q6.26-11.77,10.85-19.25t11-17.37c4.28-6.6,7.19-11.2,8.64-13.79a13.63,13.63,0,0,0,2.2-6,18.45,18.45,0,0,0-.38-3.32c-.24-1.28-.37-2-.37-2.11,1.27-.11,2.6-.2,3.94-.27-2.11-.18-4.31-.29-6.62-.29-5,0-9.79.2-14.21.58,0,.13.13.83.37,2.11.07.37.11.7.16,1a102.13,102.13,0,0,1,13.66-2.58,441.69,441.69,0,0,0-46.85,75.07,47.59,47.59,0,0,0-2.8,7.76.36.36,0,0,1,0,.2,30.55,30.55,0,0,0,5.57.44A76,76,0,0,0,245.18,107.43Z"/><path id="패스_320" data-name="패스 320" class="cls-2" d="M292.71,101.76a103.3,103.3,0,0,0,12.14-10.65,110.16,110.16,0,0,1-26,12.43,87.42,87.42,0,0,1-26.92,4.62,24.85,24.85,0,0,1-6.71-.73,74,74,0,0,1-10.19.73,30.51,30.51,0,0,1-5.56-.44,37.25,37.25,0,0,0-.79,8.49,19.25,19.25,0,0,0,.83,6.49,4.8,4.8,0,0,0,2.86,3l.22.07a118.82,118.82,0,0,0,25.91-6A126,126,0,0,0,292.71,101.76Z"/><path id="패스_321" data-name="패스 321" class="cls-2" d="M253.12,38.69a7.74,7.74,0,0,0-1.08.05,3.81,3.81,0,0,0-.24.32C252.26,39,252.68,38.82,253.12,38.69Z"/><path id="패스_322" data-name="패스 322" class="cls-2" d="M218.35,40.81c0,.81-.09,1.62-.09,2.48a14.07,14.07,0,0,0,.13,1.83c2.46-1,4.86-2.09,7.19-3,2-.77,4.2-1.52,6.67-2.27a6.59,6.59,0,0,1,1.31-1,87.73,87.73,0,0,0-9.68,1.12Z"/><path id="패스_323" data-name="패스 323" class="cls-2" d="M264.91,24.12q6.63-.57,14.21-.58c2.34,0,4.51.11,6.62.29,3.28-.2,6.69-.29,10.28-.29a45.94,45.94,0,0,1,27.47,7,11.83,11.83,0,0,1,.95.8,41.42,41.42,0,0,0-1.65-5.13,38.64,38.64,0,0,0-9.49-14.07A42.82,42.82,0,0,0,298,3.17,57.64,57.64,0,0,0,285.52.47a105,105,0,0,0-12.34,1.87A161.94,161.94,0,0,0,253.12,7.9a151,151,0,0,0-16.37,6.82A60.47,60.47,0,0,0,226.24,21a23.64,23.64,0,0,0-7.72,16.8c.47-.24.93-.46,1.48-.72a125.89,125.89,0,0,1,12.14-4.86q7.19-2.55,15.24-4.63a106,106,0,0,1,14.76-2.86L259,29c1.76-.52,3.5-1,5.33-1.5l1.1-.26c0-.36-.09-.66-.16-1C265,25,264.91,24.25,264.91,24.12Z"/><path id="패스_324" data-name="패스 324" class="cls-2" d="M322,84.51a18.07,18.07,0,0,0-3.28,6,21,21,0,0,0-.7,4.17,91.68,91.68,0,0,0,15.88-19.18c1-1.69,2-3.41,2.81-5.13-2.31,1.85-4.62,3.85-7,6A82.78,82.78,0,0,0,322,84.51Z"/></g><g id="그룹_30" data-name="그룹 30"><path id="패스_325" data-name="패스 325" class="cls-3" d="M279.12,23.56c-5,0-9.79.2-14.21.58,0,.13.13.83.38,2.11.07.37.11.7.15,1a102.27,102.27,0,0,1,13.67-2.58,441.67,441.67,0,0,0-46.83,75.08,47.59,47.59,0,0,0-2.8,7.76.36.36,0,0,1,0,.2,30.55,30.55,0,0,0,5.57.43,72.17,72.17,0,0,0,10.18-.72,7.69,7.69,0,0,1-.9-.27,3.48,3.48,0,0,1-2.66-3.4,10.87,10.87,0,0,1,.75-3.28,38.08,38.08,0,0,1,2.38-5.15c1.07-2,1.89-3.43,2.37-4.28s1.41-2.56,2.71-5.06q6.24-11.79,10.84-19.25t11-17.38c4.28-6.6,7.19-11.19,8.64-13.79a13.59,13.59,0,0,0,2.2-6,18.67,18.67,0,0,0-.38-3.33c-.24-1.27-.37-2-.37-2.11,1.28-.11,2.6-.2,3.94-.26A65.94,65.94,0,0,0,279.12,23.56Z"/><path id="패스_326" data-name="패스 326" class="cls-3" d="M223.92,39.93a92.83,92.83,0,0,1,9.68-1.12A32.82,32.82,0,0,1,237,37a125.89,125.89,0,0,1,12.14-4.86c3.16-1.1,6.48-2.14,9.9-3.13,1-1.45,2.11-2.88,3.18-4.36a106,106,0,0,0-14.76,2.86q-8,2.12-15.24,4.63A123.36,123.36,0,0,0,220.05,37c-.55.26-1,.48-1.47.72-.11,1-.18,2-.22,3.06Z"/><path id="패스_327" data-name="패스 327" class="cls-3" d="M318.76,90.54a17.72,17.72,0,0,1,3.28-6,80.64,80.64,0,0,1,7.76-8.14c2.33-2.13,4.69-4.11,7-6a56.15,56.15,0,0,0,6.29-25.53,50,50,0,0,0-3.32-18.7,38.7,38.7,0,0,0-9.48-14.06A42.81,42.81,0,0,0,315,3.17,61.66,61.66,0,0,0,294.8,0c-3.05,0-6.15.18-9.25.47A57.77,57.77,0,0,1,298,3.17a42.65,42.65,0,0,1,15.33,8.93,38.08,38.08,0,0,1,9.48,14.07,41.42,41.42,0,0,1,1.65,5.13A23.25,23.25,0,0,1,333,50.36a36.51,36.51,0,0,1-7.48,21.69,75.24,75.24,0,0,1-20,18.61c-.22.16-.44.29-.66.42a102.3,102.3,0,0,1-12.14,10.64,125.8,125.8,0,0,1-34.27,18,118.82,118.82,0,0,1-25.91,6,16.7,16.7,0,0,0,5.21.68,113.91,113.91,0,0,0,37.6-6.63,126.07,126.07,0,0,0,34.27-18,104.63,104.63,0,0,0,8.43-7A23.33,23.33,0,0,1,318.76,90.54Z"/><path id="패스_328" data-name="패스 328" class="cls-3" d="M240.83,39.93c-4.51.75-7.06,1.12-7.61,1.12-.82,0-1.21-.22-1.21-.66a1,1,0,0,1,.26-.56c-2.46.75-4.69,1.5-6.66,2.27-2.34.9-4.75,1.91-7.2,3a4.39,4.39,0,0,0,4.42,4.36H223a11.8,11.8,0,0,0,3.56-.71c1.38-.46,3.65-1.4,6.77-2.79s6.21-2.68,9.15-3.83a96.54,96.54,0,0,1,9.31-3,2.43,2.43,0,0,1,.24-.32A84.64,84.64,0,0,0,240.83,39.93Z"/></g><path id="패스_329" data-name="패스 329" class="cls-1" d="M232.27,99.73A442.61,442.61,0,0,1,279.1,24.66a105.87,105.87,0,0,0-13.67,2.58,14.55,14.55,0,0,1,.22,2.28,13.47,13.47,0,0,1-2.2,6q-2.2,3.9-8.64,13.79c-4.29,6.6-8,12.41-11,17.38S237.13,78.11,233,86c-1.3,2.49-2.22,4.17-2.7,5.06s-1.3,2.31-2.38,4.29a33.82,33.82,0,0,0-2.38,5.15,10.8,10.8,0,0,0-.75,3.28,3.49,3.49,0,0,0,2.67,3.4,13.27,13.27,0,0,0,2,.52.27.27,0,0,1,.05-.19A46,46,0,0,1,232.27,99.73Z"/><path id="패스_330" data-name="패스 330" class="cls-1" d="M237,37a37.1,37.1,0,0,0-3.36,1.78c.9,0,1.78-.09,2.6-.11-1.39.38-2.68.77-3.94,1.15a.82.82,0,0,0-.26.55c0,.44.39.66,1.2.66.56,0,3.13-.37,7.62-1.12A86,86,0,0,1,252,38.77q3.38-4.76,7-9.7c-3.4,1-6.77,2-9.9,3.12A120.39,120.39,0,0,0,237,37Z"/><path id="패스_331" data-name="패스 331" class="cls-1" d="M215.09,40.39c0,.44.4.66,1.21.66.26,0,.95-.08,2-.24,0-1,.13-2.08.21-3.05C216.26,38.94,215.09,39.82,215.09,40.39Z"/><path id="패스_332" data-name="패스 332" class="cls-1" d="M317,75.54a89.79,89.79,0,0,1-12.17,15.57c.22-.15.44-.28.67-.42a74.56,74.56,0,0,0,19.94-18.61,36.42,36.42,0,0,0,7.48-21.68,23.26,23.26,0,0,0-8.49-19.07,52.82,52.82,0,0,1,1.67,13.54A58,58,0,0,1,317,75.54Z"/><path id="패스_333" data-name="패스 333" class="cls-1" d="M288.6,90.67a74.77,74.77,0,0,0,19.95-18.61A36.47,36.47,0,0,0,316,50.37a23.2,23.2,0,0,0-9.44-19.86,40.33,40.33,0,0,0-20.84-6.69c-1.34.07-2.64.16-3.94.27,0,.13.14.83.38,2.11a18.56,18.56,0,0,1,.38,3.32,13.59,13.59,0,0,1-2.2,6q-2.22,3.9-8.65,13.79c-4.28,6.6-8,12.41-11,17.38S254,78.11,249.86,86c-1.3,2.49-2.22,4.17-2.7,5.06s-1.3,2.31-2.38,4.29a32.84,32.84,0,0,0-2.37,5.15,10.51,10.51,0,0,0-.75,3.28,3.48,3.48,0,0,0,2.66,3.4,6.69,6.69,0,0,0,.9.27A93.36,93.36,0,0,0,262,103.49,108.89,108.89,0,0,0,288.6,90.67Z"/><path id="패스_334" data-name="패스 334" class="cls-1" d="M339.94,85q-10.33,7.75-10.34,16a10.42,10.42,0,0,0,1,4.91,3.14,3.14,0,0,0,2.8,1.91,10.72,10.72,0,0,0,3.64-1.3A73.11,73.11,0,0,0,355,91.37q8.14-9.3,19.53-25.29A203,203,0,0,0,339.94,85Z"/><path id="패스_335" data-name="패스 335" class="cls-4" d="M218.35,40.81a20.31,20.31,0,0,1-2,.24c-.81,0-1.21-.22-1.21-.66s1.17-1.46,3.47-2.64a23.71,23.71,0,0,1,7.73-16.81,62.14,62.14,0,0,1,10.51-6.23,148.92,148.92,0,0,1,16.36-6.82,160.47,160.47,0,0,1,20.08-5.55A104.68,104.68,0,0,1,285.58.47,73.3,73.3,0,0,0,277.89,0a103.09,103.09,0,0,0-21.6,2.34,161.16,161.16,0,0,0-20,5.56,149.07,149.07,0,0,0-16.37,6.82A60.47,60.47,0,0,0,209.37,21q-8,6.42-8,22.34c0,4.11,1.56,6.16,4.77,6.16a11.49,11.49,0,0,0,3.57-.7c1.38-.46,3.64-1.41,6.77-2.79.66-.29,1.3-.58,2-.84a11.07,11.07,0,0,1-.13-1.82C218.26,42.43,218.3,41.62,218.35,40.81Z"/><path id="패스_336" data-name="패스 336" class="cls-4" d="M296.05,23.56c-3.58,0-7,.11-10.27.29a40.23,40.23,0,0,1,20.84,6.68,23.23,23.23,0,0,1,9.44,19.87,36.49,36.49,0,0,1-7.48,21.68,75.23,75.23,0,0,1-19.95,18.61A110.34,110.34,0,0,1,262,103.54a97.35,97.35,0,0,1-16.74,3.92,26.1,26.1,0,0,0,6.71.72,87.42,87.42,0,0,0,26.92-4.62,110.55,110.55,0,0,0,26-12.43A89,89,0,0,0,317,75.56a58,58,0,0,0,9.11-30.66,53.4,53.4,0,0,0-1.68-13.55l-.94-.79A45.94,45.94,0,0,0,296.05,23.56Z"/><path id="패스_337" data-name="패스 337" class="cls-4" d="M229.47,122.7a19.51,19.51,0,0,1-.83-6.49,37.82,37.82,0,0,1,.79-8.49,13,13,0,0,1-2-.52,3.49,3.49,0,0,1-2.67-3.41,10.81,10.81,0,0,1,.75-3.27,38.17,38.17,0,0,1,2.38-5.15c1.08-2,1.89-3.44,2.37-4.29s1.41-2.55,2.71-5.06q6.25-11.77,10.84-19.24t11-17.38c4.29-6.6,7.2-11.2,8.64-13.79a13.51,13.51,0,0,0,2.2-6,14.67,14.67,0,0,0-.22-2.29l-1.1.27c-1.82.48-3.56,1-5.32,1.49-2.4,3.3-4.73,6.54-7,9.71.35,0,.72,0,1.08,0-.47.13-.86.24-1.3.38a389.45,389.45,0,0,0-36.47,60.67,47.22,47.22,0,0,0-2.79,7.76,37.3,37.3,0,0,0-.84,8.69,19.2,19.2,0,0,0,.84,6.48,4.75,4.75,0,0,0,2.86,3,15.88,15.88,0,0,0,5.47.75,103.41,103.41,0,0,0,11.68-.68l-.21-.07A4.62,4.62,0,0,1,229.47,122.7Z"/><path id="패스_338" data-name="패스 338" class="cls-4" d="M233.59,38.8a6.38,6.38,0,0,0-1.32,1c1.25-.37,2.55-.77,3.94-1.14C235.37,38.71,234.49,38.75,233.59,38.8Z"/><path id="패스_339" data-name="패스 339" class="cls-4" d="M376.89,105.54q-6.36,0-6.35-6.91a13.16,13.16,0,0,1,1.82-7.11c1.21-1.93,3.34-5,6.36-9a19.82,19.82,0,0,0,4.53-8.33,7.38,7.38,0,0,0-.57-2.58c-.38-1-.91-2.21-1.57-3.78S379.86,65,379.42,64A26.12,26.12,0,0,0,384,62.07a2.67,2.67,0,0,0,1.3-2.48,8.63,8.63,0,0,0-1-3.17,12.22,12.22,0,0,0-2.66-3.78A5.08,5.08,0,0,0,378,51a54,54,0,0,0-20.65,6.25,102.46,102.46,0,0,0-20.61,13.2c-.86,1.71-1.78,3.43-2.81,5.13A90.8,90.8,0,0,1,318,94.76c-.08,1-.13,2-.13,3.13a30.05,30.05,0,0,0,2.38,11.72,34.29,34.29,0,0,0,5.48,9.22c2.08,2.37,3.76,3.56,5.14,3.56a18.24,18.24,0,0,0,10.94-6.4q6.65-6.4,20.29-21.55a66.25,66.25,0,0,0-5.33,21.4,13.06,13.06,0,0,0,1.57,7.06,5.71,5.71,0,0,0,5.21,2.37q10.19,0,33.82-26.26V93.33C388.09,101.45,381.27,105.54,376.89,105.54ZM355,91.37a72.5,72.5,0,0,1-17.95,15.11,9.92,9.92,0,0,1-3.65,1.3,3.11,3.11,0,0,1-2.79-1.91,10.42,10.42,0,0,1-1-4.91q0-8.2,10.34-16A202.57,202.57,0,0,1,374.54,66.1q-11.35,16-19.51,25.27Z"/><path id="패스_340" data-name="패스 340" class="cls-3" d="M346.69,76.38a113.37,113.37,0,0,1,27.58-19.16A53.8,53.8,0,0,1,394.92,51a5.19,5.19,0,0,1,3.65,1.62,12.55,12.55,0,0,1,2.66,3.79,8.58,8.58,0,0,1,1,3.16A2.74,2.74,0,0,1,400.93,62a26.54,26.54,0,0,1-4.58,1.91c.44,1,1,2.27,1.7,3.83s1.2,2.81,1.56,3.78a7.38,7.38,0,0,1,.57,2.58,19.65,19.65,0,0,1-4.53,8.33c-3,4.09-5.15,7.08-6.36,9a13.14,13.14,0,0,0-1.82,7.11c0,4.62,2.11,6.91,6.36,6.91s11.18-4.09,20.48-12.26V99q-23.67,26.27-33.83,26.27a5.73,5.73,0,0,1-5.21-2.38,13,13,0,0,1-1.57-7.06,67.15,67.15,0,0,1,5.41-21.4Q365.46,109.55,358.83,116a18.31,18.31,0,0,1-10.94,6.41c-1.37,0-3.08-1.19-5.15-3.57a34.89,34.89,0,0,1-5.47-9.21,29.75,29.75,0,0,1-2.38-11.73,27.94,27.94,0,0,1,.83-7.34,18,18,0,0,1,3.27-6A77.75,77.75,0,0,1,346.69,76.38ZM391.5,66.1A202.19,202.19,0,0,0,356.88,85q-10.33,7.75-10.34,16a10.42,10.42,0,0,0,1,4.91,3.14,3.14,0,0,0,2.79,1.91,10.7,10.7,0,0,0,3.65-1.3,73.48,73.48,0,0,0,18-15.11q8.08-9.3,19.51-25.27Z"/><path id="패스_341" data-name="패스 341" d="M232.27,39.83a6.65,6.65,0,0,1,1.32-1,89.92,89.92,0,0,0-9.68,1.12c-2.44.4-4.29.71-5.58.88-.05.82-.09,1.63-.09,2.49a13.8,13.8,0,0,0,.13,1.82c2.46-1,4.86-2.08,7.19-3C227.56,41.36,229.8,40.58,232.27,39.83Z"/><path id="패스_342" data-name="패스 342" d="M252,38.75a3.81,3.81,0,0,0-.24.32l1.3-.37C252.77,38.71,252.39,38.75,252,38.75Z"/><path id="패스_343" data-name="패스 343" d="M292.71,101.76a103.3,103.3,0,0,0,12.14-10.65,110.16,110.16,0,0,1-26,12.43,87.42,87.42,0,0,1-26.92,4.62,24.85,24.85,0,0,1-6.71-.73,74,74,0,0,1-10.19.73,30.51,30.51,0,0,1-5.56-.44,37.25,37.25,0,0,0-.79,8.49,19.25,19.25,0,0,0,.83,6.49,4.8,4.8,0,0,0,2.86,3l.22.07a118.82,118.82,0,0,0,25.91-6A126,126,0,0,0,292.71,101.76Z"/><path id="패스_344" data-name="패스 344" d="M253.16,7.9a151.73,151.73,0,0,0-16.36,6.82A60.1,60.1,0,0,0,226.29,21a23.65,23.65,0,0,0-7.73,16.8c.47-.24.93-.46,1.48-.72a125.89,125.89,0,0,1,12.14-4.86q7.2-2.55,15.24-4.63a106,106,0,0,1,14.76-2.86L259,29c1.77-.52,3.5-1,5.33-1.5l1.1-.26c0-.36-.09-.66-.16-1-.24-1.28-.37-2-.37-2.11q6.63-.57,14.21-.58c2.33,0,4.5.11,6.62.29,3.27-.2,6.68-.29,10.27-.29a45.92,45.92,0,0,1,27.47,7c.33.24.64.53,1,.8a41.42,41.42,0,0,0-1.65-5.13,38.74,38.74,0,0,0-9.48-14.07A43,43,0,0,0,298,3.19,57.64,57.64,0,0,0,285.5.49a104.68,104.68,0,0,0-12.34,1.87A159.24,159.24,0,0,0,253.16,7.9Z"/><path id="패스_345" data-name="패스 345" d="M333.92,75.54c1-1.69,2-3.41,2.81-5.13-2.3,1.85-4.62,3.85-7,6A81.77,81.77,0,0,0,322,84.51a18.07,18.07,0,0,0-3.28,6,21.76,21.76,0,0,0-.7,4.17A91.15,91.15,0,0,0,333.92,75.54Z"/><g id="그룹_31" data-name="그룹 31"><path id="패스_346" data-name="패스 346" class="cls-1" d="M356.85,85a22.14,22.14,0,0,0-10.22,14.72,10.88,10.88,0,0,0-.11,1.27,10.42,10.42,0,0,0,1,4.91,3.13,3.13,0,0,0,2.38,1.85,3.18,3.18,0,0,0,.43.06,10.48,10.48,0,0,0,3.65-1.29c1.76-1,3.5-2.18,5.17-3.39A76.26,76.26,0,0,0,372,91.4c.79-.9,1.6-1.87,2.44-2.86q7.36-8.78,17.09-22.41c-3.28,1.5-6.33,3-9.24,4.36q-10.74,5.2-18,9.61A79,79,0,0,0,356.85,85Z"/><path id="패스_347" data-name="패스 347" class="cls-1" d="M346.63,99.69A22.2,22.2,0,0,1,356.85,85c2.39-1.76,4.87-3.41,7.42-4.92,3.19-4.14,6.62-8.78,10.31-14A201.57,201.57,0,0,0,340,85c-1,.79-2,1.6-2.92,2.42a14.64,14.64,0,0,0-1.35,3.12,26.39,26.39,0,0,0-.83,7.35,29.69,29.69,0,0,0,1.38,9,7.53,7.53,0,0,0,.86-.42A72.27,72.27,0,0,0,346.63,99.69Z"/><path id="패스_348" data-name="패스 348" class="cls-1" d="M393.81,105.54a9,9,0,0,1-2.25-.29,118.22,118.22,0,0,1-17.24,15.46,8.21,8.21,0,0,0,.92,2.18,5.73,5.73,0,0,0,5.21,2.38q10.2,0,33.83-26.27V93.31Q400.38,105.52,393.81,105.54Z"/><path id="패스_349" data-name="패스 349" class="cls-1" d="M387.69,100.92a11.18,11.18,0,0,1-.24-2.31,13.22,13.22,0,0,1,1.83-7.1c1.21-1.94,3.34-5,6.35-9a19.81,19.81,0,0,0,4.54-8.34,7.39,7.39,0,0,0-.58-2.57c-.37-1-.9-2.22-1.56-3.78S396.77,65,396.34,64a26.12,26.12,0,0,0,4.57-1.91,2.68,2.68,0,0,0,1.3-2.49,8.88,8.88,0,0,0-1-3.17,12.51,12.51,0,0,0-2.66-3.78A5.12,5.12,0,0,0,394.91,51a37.58,37.58,0,0,0-12.32,2.76,13.3,13.3,0,0,1,1.72,2.66,8.82,8.82,0,0,1,1,3.17,2.71,2.71,0,0,1-1.3,2.48A25.9,25.9,0,0,1,379.42,64c.44,1,1,2.27,1.7,3.83.44,1,.81,1.89,1.14,2.66q4.33-2.1,9.24-4.35-9.74,13.67-17.09,22.4c-.81,1.17-1.51,2.2-2,3a13.16,13.16,0,0,0-1.82,7.11,8.62,8.62,0,0,0,.88,4.17c2.33-2.53,4.86-5.3,7.63-8.39-1.56,4.12-2.75,7.77-3.65,11a9.47,9.47,0,0,0,1.5.11A21.19,21.19,0,0,0,387.69,100.92Z"/><path id="패스_350" data-name="패스 350" class="cls-1" d="M359.17,103.08c-1.7,1.21-3.41,2.35-5.17,3.39a10.09,10.09,0,0,1-3.65,1.29,3.18,3.18,0,0,1-.43-.06q-4.86,5.14-8.05,8.24c-.27.27-.53.49-.8.75a24.41,24.41,0,0,0,1.63,2.11c2.08,2.38,3.76,3.57,5.15,3.57a15.41,15.41,0,0,0,9.06-4.69c0-.6-.09-1.19-.09-1.85A46.9,46.9,0,0,1,359.17,103.08Z"/><path id="패스_351" data-name="패스 351" d="M391.6,105.25a5.13,5.13,0,0,1-3.88-4.31,21.75,21.75,0,0,1-10.8,4.62,9.26,9.26,0,0,1-1.49-.11,41.62,41.62,0,0,0-1.69,10.39,17.1,17.1,0,0,0,.61,4.88A121.14,121.14,0,0,0,391.6,105.25Z"/><path id="패스_352" data-name="패스 352" d="M374.56,66.09c-3.7,5.21-7.13,9.83-10.32,14q7.26-4.4,18-9.62c-.31-.77-.68-1.65-1.15-2.66-.68-1.56-1.25-2.84-1.69-3.83A26.12,26.12,0,0,0,384,62a2.68,2.68,0,0,0,1.3-2.49,8.58,8.58,0,0,0-1-3.16,11.89,11.89,0,0,0-1.71-2.67c-2.56,1-5.33,2.09-8.34,3.5a113.84,113.84,0,0,0-27.58,19.16,80.64,80.64,0,0,0-7.76,8.14A19.89,19.89,0,0,0,337,87.4c.9-.82,1.85-1.61,2.93-2.42A204.28,204.28,0,0,1,374.56,66.09Z"/><path id="패스_353" data-name="패스 353" d="M372.36,91.51c.52-.79,1.21-1.83,2-3-.83,1-1.65,2-2.44,2.86a76.26,76.26,0,0,1-12.78,11.7,46.77,46.77,0,0,0-2.36,12.73c0,.66,0,1.26.09,1.85.62-.52,1.23-1.1,1.87-1.71,3.08-3,7.33-7.4,12.65-13.18a8.85,8.85,0,0,1-.88-4.17A13.12,13.12,0,0,1,372.36,91.51Z"/><path id="패스_354" data-name="패스 354" d="M349.9,107.72a3.31,3.31,0,0,1-2.37-1.85,10.3,10.3,0,0,1-1-4.91,10.88,10.88,0,0,1,.11-1.27,69.11,69.11,0,0,1-9.53,6.77l-.86.42c.29.92.62,1.82,1,2.73a38.28,38.28,0,0,0,3.83,7.1c.27-.24.52-.48.79-.75C344,113.9,346.7,111.15,349.9,107.72Z"/></g><g id="그룹_32" data-name="그룹 32"><path id="패스_355" data-name="패스 355" class="cls-1" d="M95.87,23.56c-3.59,0-7,.11-10.28.29-1.34.07-2.64.16-3.93.27,0,.13.13.83.37,2.11a18.45,18.45,0,0,1,.38,3.32,13.63,13.63,0,0,1-2.2,6Q78,39.47,71.56,49.37c-4.28,6.6-8,12.4-11,17.37S53.88,78.14,49.7,86c-1.3,2.49-2.22,4.17-2.7,5.06s-1.3,2.31-2.38,4.29a32.32,32.32,0,0,0-2.37,5.14,10.64,10.64,0,0,0-.75,3.28,3.48,3.48,0,0,0,2.66,3.41,8.52,8.52,0,0,0,.9.26,25.72,25.72,0,0,0,6.71.73,87.53,87.53,0,0,0,26.93-4.62,111.06,111.06,0,0,0,26-12.43c.22-.15.44-.28.67-.42a74.75,74.75,0,0,0,20-18.61A36.41,36.41,0,0,0,132.8,50.4a23.26,23.26,0,0,0-8.49-19.07l-1-.8A46,46,0,0,0,95.87,23.56Z"/><path id="패스_356" data-name="패스 356" class="cls-1" d="M18.22,45.1a4.39,4.39,0,0,0,4.41,4.36h.21a11.49,11.49,0,0,0,3.57-.7c1.36-.46,3.64-1.41,6.77-2.79s6.21-2.69,9.15-3.83a94.46,94.46,0,0,1,9.3-3c.08-.12.16-.22.24-.33a87.83,87.83,0,0,0-11.21,1.17c-4.51.75-7.06,1.12-7.61,1.12-.82,0-1.21-.22-1.21-.66a1,1,0,0,1,.26-.56c-2.46.75-4.69,1.5-6.66,2.27C23.1,43,20.69,44,18.22,45.1Z"/><path id="패스_357" data-name="패스 357" class="cls-1" d="M118.59,90.54a18.07,18.07,0,0,1,3.28-6,81.77,81.77,0,0,1,7.76-8.14c2.34-2.13,4.69-4.11,7-6a56.14,56.14,0,0,0,6.28-25.53,50,50,0,0,0-3.32-18.7,38.7,38.7,0,0,0-9.48-14.06,42.87,42.87,0,0,0-15.3-8.95A61.56,61.56,0,0,0,94.64,0c-3.06,0-6.16.18-9.26.47a57.64,57.64,0,0,1,12.45,2.7,42.69,42.69,0,0,1,15.34,8.93,38.08,38.08,0,0,1,9.48,14.07,43.18,43.18,0,0,1,1.65,5.13,23.25,23.25,0,0,1,8.49,19.06,36.57,36.57,0,0,1-7.47,21.69,75.47,75.47,0,0,1-20,18.61c-.22.15-.44.28-.66.42a105,105,0,0,1-12.14,10.64,125.77,125.77,0,0,1-34.27,18,117.67,117.67,0,0,1-25.91,6,17,17,0,0,0,5.21.69,114,114,0,0,0,37.61-6.63,126,126,0,0,0,34.28-18,104.49,104.49,0,0,0,8.42-7A24.26,24.26,0,0,1,118.59,90.54Z"/><path id="패스_358" data-name="패스 358" class="cls-1" d="M47.26,27.54Q39.21,29.66,32,32.17A124.36,124.36,0,0,0,19.87,37c-.55.26-1,.48-1.47.72-.11,1-.18,2-.22,3.06,1.28-.18,3.13-.49,5.59-.88a92.21,92.21,0,0,1,9.68-1.12A32.67,32.67,0,0,1,36.81,37,128,128,0,0,1,49,32.17c3.17-1.1,6.49-2.14,9.9-3.13,1-1.45,2.11-2.88,3.19-4.36A106,106,0,0,0,47.26,27.54Z"/><path id="패스_359" data-name="패스 359" class="cls-1" d="M45,107.43a8.52,8.52,0,0,1-.9-.26,3.49,3.49,0,0,1-2.67-3.41,10.94,10.94,0,0,1,.75-3.28,38.62,38.62,0,0,1,2.38-5.14c1.08-2,1.89-3.44,2.38-4.29s1.4-2.55,2.7-5.06Q55.92,74.22,60.5,66.74t11-17.37c4.29-6.6,7.2-11.2,8.65-13.79a13.62,13.62,0,0,0,2.19-6A18.44,18.44,0,0,0,82,26.23c-.24-1.28-.38-2-.38-2.11,1.28-.11,2.61-.2,3.94-.27-2.11-.18-4.31-.29-6.62-.29-5,0-9.79.2-14.21.58,0,.13.13.83.38,2.11.07.37.11.7.15,1a102.27,102.27,0,0,1,13.67-2.58,442.71,442.71,0,0,0-46.81,75,48.61,48.61,0,0,0-2.79,7.77.38.38,0,0,1,0,.2,30.51,30.51,0,0,0,5.56.43A69.29,69.29,0,0,0,45,107.43Z"/><path id="패스_360" data-name="패스 360" class="cls-2" d="M92.55,101.76a104.11,104.11,0,0,0,12.14-10.65,110.16,110.16,0,0,1-26,12.43,87.48,87.48,0,0,1-26.93,4.62,24.89,24.89,0,0,1-6.71-.73,73.7,73.7,0,0,1-10.18.73,30.55,30.55,0,0,1-5.57-.44,37.82,37.82,0,0,0-.79,8.49,19.26,19.26,0,0,0,.84,6.49,4.8,4.8,0,0,0,2.86,3l.21.07a118.55,118.55,0,0,0,25.91-6A126.18,126.18,0,0,0,92.55,101.76Z"/><path id="패스_361" data-name="패스 361" class="cls-2" d="M53,38.69a7.88,7.88,0,0,0-1.08.05l-.24.32C52.1,39,52.52,38.82,53,38.69Z"/><path id="패스_362" data-name="패스 362" class="cls-2" d="M18.18,40.81c0,.81-.09,1.62-.09,2.48a16.08,16.08,0,0,0,.13,1.83c2.47-1,4.86-2.09,7.2-3,2-.77,4.2-1.52,6.66-2.27a6.65,6.65,0,0,1,1.32-1,87.18,87.18,0,0,0-9.68,1.12Z"/><path id="패스_363" data-name="패스 363" class="cls-2" d="M64.75,24.12q6.63-.57,14.21-.58c2.33,0,4.5.11,6.62.29,3.28-.2,6.68-.29,10.27-.29a46,46,0,0,1,27.48,7c.32.24.63.52.94.8a41.42,41.42,0,0,0-1.65-5.13,38.59,38.59,0,0,0-9.49-14.08A43,43,0,0,0,97.81,3.17,57.64,57.64,0,0,0,85.36.47,105.17,105.17,0,0,0,73,2.34,161.94,161.94,0,0,0,53,7.9a149.73,149.73,0,0,0-16.36,6.82A60.47,60.47,0,0,0,26.08,21a23.6,23.6,0,0,0-7.72,16.8c.46-.24.92-.46,1.47-.72A128,128,0,0,1,32,32.17q7.2-2.55,15.25-4.63A105.4,105.4,0,0,1,62,24.68c-1.08,1.48-2.14,2.91-3.19,4.36,1.76-.52,3.49-1,5.32-1.5l1.1-.26c0-.36-.09-.66-.15-1C64.86,25,64.75,24.25,64.75,24.12Z"/><path id="패스_364" data-name="패스 364" class="cls-2" d="M121.87,84.51a18.07,18.07,0,0,0-3.28,6,22.57,22.57,0,0,0-.7,4.17,91.37,91.37,0,0,0,15.88-19.18c1-1.69,2-3.41,2.81-5.13-2.3,1.85-4.62,3.85-7,6A84,84,0,0,0,121.87,84.51Z"/></g><g id="그룹_33" data-name="그룹 33"><path id="패스_365" data-name="패스 365" class="cls-1" d="M95.87,23.56c-3.59,0-7,.11-10.28.29-1.34.07-2.64.16-3.93.27,0,.13.13.83.37,2.11a18.45,18.45,0,0,1,.38,3.32,13.63,13.63,0,0,1-2.2,6Q78,39.47,71.56,49.37c-4.28,6.6-8,12.4-11,17.37S53.88,78.14,49.7,86c-1.3,2.49-2.22,4.17-2.7,5.06s-1.3,2.31-2.38,4.29a32.32,32.32,0,0,0-2.37,5.14,10.64,10.64,0,0,0-.75,3.28,3.48,3.48,0,0,0,2.66,3.41,8.52,8.52,0,0,0,.9.26,25.72,25.72,0,0,0,6.71.73,87.53,87.53,0,0,0,26.93-4.62,111.06,111.06,0,0,0,26-12.43c.22-.15.44-.28.67-.42a74.75,74.75,0,0,0,20-18.61A36.41,36.41,0,0,0,132.8,50.4a23.26,23.26,0,0,0-8.49-19.07l-1-.8A46,46,0,0,0,95.87,23.56Z"/><path id="패스_366" data-name="패스 366" class="cls-1" d="M18.22,45.1a4.39,4.39,0,0,0,4.41,4.36h.21a11.49,11.49,0,0,0,3.57-.7c1.36-.46,3.64-1.41,6.77-2.79s6.21-2.69,9.15-3.83a94.46,94.46,0,0,1,9.3-3c.08-.12.16-.22.24-.33a87.83,87.83,0,0,0-11.21,1.17c-4.51.75-7.06,1.12-7.61,1.12-.82,0-1.21-.22-1.21-.66a1,1,0,0,1,.26-.56c-2.46.75-4.69,1.5-6.66,2.27C23.1,43,20.69,44,18.22,45.1Z"/><path id="패스_367" data-name="패스 367" class="cls-1" d="M47.26,27.54Q39.21,29.66,32,32.17A124.36,124.36,0,0,0,19.87,37c-.55.26-1,.48-1.47.72-.11,1-.18,2-.22,3.06,1.28-.18,3.13-.49,5.59-.88a92.21,92.21,0,0,1,9.68-1.12A32.67,32.67,0,0,1,36.81,37,128,128,0,0,1,49,32.17c3.17-1.1,6.49-2.14,9.9-3.13,1-1.45,2.11-2.88,3.19-4.36A106,106,0,0,0,47.26,27.54Z"/><path id="패스_368" data-name="패스 368" class="cls-1" d="M118.59,90.54a18.07,18.07,0,0,1,3.28-6,81.77,81.77,0,0,1,7.76-8.14c2.34-2.13,4.69-4.11,7-6a56.14,56.14,0,0,0,6.28-25.53,50,50,0,0,0-3.32-18.7,38.7,38.7,0,0,0-9.48-14.06,42.87,42.87,0,0,0-15.3-8.95A61.56,61.56,0,0,0,94.64,0c-3.06,0-6.16.18-9.26.47a57.64,57.64,0,0,1,12.45,2.7,42.69,42.69,0,0,1,15.34,8.93,38.08,38.08,0,0,1,9.48,14.07,43.18,43.18,0,0,1,1.65,5.13,23.25,23.25,0,0,1,8.49,19.06,36.57,36.57,0,0,1-7.47,21.69,75.47,75.47,0,0,1-20,18.61c-.22.15-.44.28-.66.42a105,105,0,0,1-12.14,10.64,125.77,125.77,0,0,1-34.27,18,117.67,117.67,0,0,1-25.91,6,17,17,0,0,0,5.21.69,114,114,0,0,0,37.61-6.63,126,126,0,0,0,34.28-18,104.49,104.49,0,0,0,8.42-7A24.26,24.26,0,0,1,118.59,90.54Z"/><path id="패스_369" data-name="패스 369" class="cls-1" d="M45,107.43a8.52,8.52,0,0,1-.9-.26,3.49,3.49,0,0,1-2.67-3.41,10.94,10.94,0,0,1,.75-3.28,38.62,38.62,0,0,1,2.38-5.14c1.08-2,1.89-3.44,2.38-4.29s1.4-2.55,2.7-5.06Q55.92,74.22,60.5,66.74t11-17.37c4.29-6.6,7.2-11.2,8.65-13.79a13.62,13.62,0,0,0,2.19-6A18.44,18.44,0,0,0,82,26.23c-.24-1.28-.38-2-.38-2.11,1.28-.11,2.61-.2,3.94-.27-2.11-.18-4.31-.29-6.62-.29-5,0-9.79.2-14.21.58,0,.13.13.83.38,2.11.07.37.11.7.15,1a102.27,102.27,0,0,1,13.67-2.58,442.71,442.71,0,0,0-46.81,75,48.61,48.61,0,0,0-2.79,7.77.38.38,0,0,1,0,.2,30.51,30.51,0,0,0,5.56.43A69.29,69.29,0,0,0,45,107.43Z"/><path id="패스_370" data-name="패스 370" class="cls-2" d="M92.55,101.76a104.11,104.11,0,0,0,12.14-10.65,110.16,110.16,0,0,1-26,12.43,87.48,87.48,0,0,1-26.93,4.62,24.89,24.89,0,0,1-6.71-.73,73.7,73.7,0,0,1-10.18.73,30.55,30.55,0,0,1-5.57-.44,37.82,37.82,0,0,0-.79,8.49,19.26,19.26,0,0,0,.84,6.49,4.8,4.8,0,0,0,2.86,3l.21.07a118.55,118.55,0,0,0,25.91-6A126.18,126.18,0,0,0,92.55,101.76Z"/><path id="패스_371" data-name="패스 371" class="cls-2" d="M53,38.69a7.88,7.88,0,0,0-1.08.05l-.24.32C52.1,39,52.52,38.82,53,38.69Z"/><path id="패스_372" data-name="패스 372" class="cls-2" d="M18.18,40.81c0,.81-.09,1.62-.09,2.48a16.08,16.08,0,0,0,.13,1.83c2.47-1,4.86-2.09,7.2-3,2-.77,4.2-1.52,6.66-2.27a6.65,6.65,0,0,1,1.32-1,87.18,87.18,0,0,0-9.68,1.12Z"/><path id="패스_373" data-name="패스 373" class="cls-2" d="M64.75,24.12q6.63-.57,14.21-.58c2.33,0,4.5.11,6.62.29,3.28-.2,6.68-.29,10.27-.29a46,46,0,0,1,27.48,7c.32.24.63.52.94.8a41.42,41.42,0,0,0-1.65-5.13,38.59,38.59,0,0,0-9.49-14.08A43,43,0,0,0,97.81,3.17,57.64,57.64,0,0,0,85.36.47,105.17,105.17,0,0,0,73,2.34,161.94,161.94,0,0,0,53,7.9a149.73,149.73,0,0,0-16.36,6.82A60.47,60.47,0,0,0,26.08,21a23.6,23.6,0,0,0-7.72,16.8c.46-.24.92-.46,1.47-.72A128,128,0,0,1,32,32.17q7.2-2.55,15.25-4.63A105.4,105.4,0,0,1,62,24.68c-1.08,1.48-2.14,2.91-3.19,4.36,1.76-.52,3.49-1,5.32-1.5l1.1-.26c0-.36-.09-.66-.15-1C64.86,25,64.75,24.25,64.75,24.12Z"/><path id="패스_374" data-name="패스 374" class="cls-2" d="M121.87,84.51a18.07,18.07,0,0,0-3.28,6,22.57,22.57,0,0,0-.7,4.17,91.37,91.37,0,0,0,15.88-19.18c1-1.69,2-3.41,2.81-5.13-2.3,1.85-4.62,3.85-7,6A84,84,0,0,0,121.87,84.51Z"/></g><g id="그룹_34" data-name="그룹 34"><path id="패스_375" data-name="패스 375" class="cls-3" d="M79,23.56c-5,0-9.79.2-14.21.58,0,.13.13.83.37,2.11.07.37.11.7.16,1a101.84,101.84,0,0,1,13.64-2.58,441.79,441.79,0,0,0-46.83,75,47.66,47.66,0,0,0-2.79,7.77.38.38,0,0,1,0,.2,30.51,30.51,0,0,0,5.56.43A72.42,72.42,0,0,0,45,107.41a6.69,6.69,0,0,1-.9-.27,3.49,3.49,0,0,1-2.67-3.4,10.8,10.8,0,0,1,.75-3.28,39.34,39.34,0,0,1,2.38-5.15c1.08-2,1.89-3.43,2.38-4.29s1.4-2.55,2.7-5.06q6.26-11.77,10.84-19.24t11-17.38c4.29-6.6,7.2-11.19,8.64-13.79a13.47,13.47,0,0,0,2.2-6A18.55,18.55,0,0,0,82,26.2c-.24-1.28-.38-2-.38-2.11,1.28-.11,2.61-.2,3.94-.27C83.47,23.67,81.29,23.56,79,23.56Z"/><path id="패스_376" data-name="패스 376" class="cls-3" d="M23.76,39.93a92.21,92.21,0,0,1,9.68-1.12A32.67,32.67,0,0,1,36.8,37a126.92,126.92,0,0,1,12.14-4.86c3.17-1.1,6.49-2.14,9.9-3.13,1-1.45,2.11-2.88,3.19-4.36a105.68,105.68,0,0,0-14.76,2.86Q39.21,29.66,32,32.17A124.36,124.36,0,0,0,19.88,37c-.55.26-1,.48-1.47.72-.11,1-.18,2-.22,3.06Z"/><path id="패스_377" data-name="패스 377" class="cls-3" d="M118.59,90.54a18.07,18.07,0,0,1,3.28-6,81.77,81.77,0,0,1,7.76-8.14c2.34-2.13,4.69-4.11,7-6a56.14,56.14,0,0,0,6.28-25.53,50,50,0,0,0-3.32-18.7,38.7,38.7,0,0,0-9.48-14.06,42.87,42.87,0,0,0-15.3-8.95A61.56,61.56,0,0,0,94.64,0c-3.06,0-6.16.18-9.26.47a57.64,57.64,0,0,1,12.45,2.7,42.69,42.69,0,0,1,15.34,8.93,38.08,38.08,0,0,1,9.48,14.07,43.18,43.18,0,0,1,1.65,5.13,23.25,23.25,0,0,1,8.49,19.06,36.57,36.57,0,0,1-7.47,21.69,75.47,75.47,0,0,1-20,18.61c-.22.15-.44.28-.66.42a105,105,0,0,1-12.14,10.64,125.77,125.77,0,0,1-34.27,18,117.67,117.67,0,0,1-25.91,6,17,17,0,0,0,5.21.69,114,114,0,0,0,37.61-6.63,126,126,0,0,0,34.28-18,104.49,104.49,0,0,0,8.42-7A24.26,24.26,0,0,1,118.59,90.54Z"/><path id="패스_378" data-name="패스 378" class="cls-3" d="M40.66,39.93c-4.5.75-7.06,1.12-7.61,1.12-.81,0-1.21-.22-1.21-.66a1,1,0,0,1,.27-.56c-2.47.75-4.69,1.5-6.67,2.27-2.33.9-4.75,1.91-7.19,3a4.38,4.38,0,0,0,4.41,4.36h.21a11.68,11.68,0,0,0,3.56-.71c1.37-.46,3.65-1.4,6.78-2.79s6.2-2.68,9.15-3.83a97.2,97.2,0,0,1,9.3-3,2.43,2.43,0,0,1,.24-.32A84.81,84.81,0,0,0,40.66,39.93Z"/></g><path id="패스_379" data-name="패스 379" class="cls-1" d="M32.1,99.73A443.24,443.24,0,0,1,78.93,24.66a105.4,105.4,0,0,0-13.66,2.58,15.86,15.86,0,0,1,.22,2.28,13.59,13.59,0,0,1-2.2,6q-2.2,3.9-8.64,13.79c-4.29,6.6-8,12.41-11,17.38S37,78.11,32.78,86c-1.29,2.49-2.21,4.17-2.7,5.06s-1.3,2.31-2.37,4.29a32.89,32.89,0,0,0-2.38,5.15,10.8,10.8,0,0,0-.75,3.28,3.48,3.48,0,0,0,2.66,3.4,13.1,13.1,0,0,0,2.05.52.33.33,0,0,1,0-.19A47.26,47.26,0,0,1,32.1,99.73Z"/><path id="패스_380" data-name="패스 380" class="cls-1" d="M36.79,37a37.28,37.28,0,0,0-3.37,1.78c.9,0,1.78-.09,2.61-.11-1.39.38-2.69.77-3.94,1.15a.83.83,0,0,0-.27.55c0,.44.4.66,1.21.66.55,0,3.13-.37,7.61-1.12a86.2,86.2,0,0,1,11.22-1.16q3.36-4.76,7-9.7c-3.41,1-6.77,2-9.9,3.12A119.45,119.45,0,0,0,36.79,37Z"/><path id="패스_381" data-name="패스 381" class="cls-1" d="M10.52,40.39c0,.44.4.66,1.21.66a20.63,20.63,0,0,0,2-.24c0-1,.13-2.08.22-3.05C11.69,38.94,10.52,39.82,10.52,40.39Z"/><path id="패스_382" data-name="패스 382" class="cls-1" d="M116.85,75.54a90.22,90.22,0,0,1-12.16,15.57c.22-.15.44-.28.66-.42a74.45,74.45,0,0,0,20-18.61,36.49,36.49,0,0,0,7.48-21.68,23.27,23.27,0,0,0-8.5-19.07A53.27,53.27,0,0,1,126,44.87,57.92,57.92,0,0,1,116.85,75.54Z"/><path id="패스_383" data-name="패스 383" class="cls-1" d="M88.43,90.67a74.77,74.77,0,0,0,19.95-18.61,36.46,36.46,0,0,0,7.49-21.69,23.2,23.2,0,0,0-9.44-19.86,40.41,40.41,0,0,0-20.84-6.68c-1.34.07-2.64.16-3.93.26,0,.14.13.84.37,2.12a18.45,18.45,0,0,1,.38,3.32,13.63,13.63,0,0,1-2.2,6Q78,39.44,71.56,49.35c-4.28,6.6-8,12.4-11,17.37S53.87,78.11,49.68,86C48.38,88.45,47.46,90.13,47,91s-1.3,2.31-2.37,4.29a32.89,32.89,0,0,0-2.38,5.15,10.8,10.8,0,0,0-.75,3.28,3.48,3.48,0,0,0,2.66,3.4,7.69,7.69,0,0,0,.9.27,93.16,93.16,0,0,0,16.74-3.92A109,109,0,0,0,88.43,90.67Z"/><path id="패스_384" data-name="패스 384" class="cls-1" d="M139.77,85q-10.32,7.75-10.33,16a10.3,10.3,0,0,0,1,4.91,3.13,3.13,0,0,0,2.79,1.91,10.78,10.78,0,0,0,3.65-1.3,73.48,73.48,0,0,0,18-15.11q8.15-9.3,19.53-25.29A202.76,202.76,0,0,0,139.77,85Z"/><path id="패스_385" data-name="패스 385" class="cls-4" d="M18.18,40.81a20,20,0,0,1-2.05.24c-.81,0-1.21-.22-1.21-.66s1.17-1.46,3.48-2.64a23.72,23.72,0,0,1,7.72-16.81,62.18,62.18,0,0,1,10.52-6.22A148.11,148.11,0,0,1,53,7.9,162.09,162.09,0,0,1,73.07,2.34,104.83,104.83,0,0,1,85.4.47,73,73,0,0,0,77.72,0a103.23,103.23,0,0,0-21.6,2.34,162.12,162.12,0,0,0-20,5.56A147.3,147.3,0,0,0,19.7,14.72,60.51,60.51,0,0,0,9.18,20.94q-8,6.43-8,22.35c0,4.13,1.56,6.16,4.77,6.16a11.37,11.37,0,0,0,3.56-.7c1.39-.46,3.65-1.41,6.77-2.79.67-.29,1.3-.58,2-.84a12.28,12.28,0,0,1-.13-1.82C18.09,42.43,18.13,41.62,18.18,40.81Z"/><path id="패스_386" data-name="패스 386" class="cls-4" d="M95.88,23.56c-3.58,0-7,.11-10.27.29a40.23,40.23,0,0,1,20.84,6.68,23.23,23.23,0,0,1,9.44,19.87,36.57,36.57,0,0,1-7.5,21.68A75.31,75.31,0,0,1,88.45,90.72a110.53,110.53,0,0,1-26.68,12.85A97.83,97.83,0,0,1,45,107.48a26.2,26.2,0,0,0,6.71.73,87.2,87.2,0,0,0,26.93-4.63,110.77,110.77,0,0,0,26-12.44,89,89,0,0,0,12.16-15.58A57.85,57.85,0,0,0,126,44.9a53.32,53.32,0,0,0-1.67-13.54l-1-.79A45.83,45.83,0,0,0,95.88,23.56Z"/><path id="패스_387" data-name="패스 387" class="cls-4" d="M29.31,122.7a19.25,19.25,0,0,1-.83-6.49,37.25,37.25,0,0,1,.79-8.49,13.1,13.1,0,0,1-2.05-.52,3.48,3.48,0,0,1-2.66-3.41,10.81,10.81,0,0,1,.75-3.27,38.12,38.12,0,0,1,2.37-5.15c1.08-2,1.9-3.44,2.38-4.29s1.41-2.55,2.7-5.06Q39,74.25,43.61,66.78t11-17.38c4.28-6.6,7.19-11.2,8.64-13.79a13.76,13.76,0,0,0,2.2-6,16,16,0,0,0-.22-2.29l-1.1.27c-1.82.48-3.56,1-5.33,1.49-2.39,3.3-4.73,6.54-7,9.71.36,0,.73,0,1.08,0-.46.13-.86.24-1.29.38A389.92,389.92,0,0,0,15.19,99.76a47.48,47.48,0,0,0-2.8,7.75,37.89,37.89,0,0,0-.83,8.69,19.51,19.51,0,0,0,.83,6.49,4.85,4.85,0,0,0,2.86,3,16.14,16.14,0,0,0,5.48.75,106.09,106.09,0,0,0,11.68-.68l-.22-.07A4.67,4.67,0,0,1,29.31,122.7Z"/><path id="패스_388" data-name="패스 388" class="cls-4" d="M33.42,38.8a6.65,6.65,0,0,0-1.32,1c1.26-.37,2.56-.77,3.94-1.14C35.2,38.71,34.32,38.75,33.42,38.8Z"/><path id="패스_389" data-name="패스 389" class="cls-4" d="M176.73,105.54q-6.37,0-6.36-6.91a13.17,13.17,0,0,1,1.83-7.11c1.2-1.93,3.34-5,6.35-9a19.71,19.71,0,0,0,4.53-8.33,7.17,7.17,0,0,0-.57-2.58c-.37-1-.9-2.21-1.56-3.78S179.69,65,179.25,64a25.9,25.9,0,0,0,4.58-1.91,2.67,2.67,0,0,0,1.3-2.48,8.82,8.82,0,0,0-1-3.17,12.42,12.42,0,0,0-2.67-3.78A5.06,5.06,0,0,0,177.83,51a54,54,0,0,0-20.66,6.25,102.46,102.46,0,0,0-20.61,13.2c-.86,1.71-1.78,3.43-2.81,5.13a90.76,90.76,0,0,1-15.88,19.17c0,.95-.09,2-.09,3.13a30.05,30.05,0,0,0,2.38,11.72,34,34,0,0,0,5.45,9.21c2.08,2.38,3.76,3.57,5.14,3.57A18.26,18.26,0,0,0,141.7,116q6.63-6.39,20.28-21.55a66.32,66.32,0,0,0-5.33,21.4,13,13,0,0,0,1.57,7.06,5.72,5.72,0,0,0,5.21,2.38q10.19,0,33.83-26.27V93.29Q183.28,105.53,176.73,105.54ZM154.85,91.37a72.68,72.68,0,0,1-17.95,15.11,10.14,10.14,0,0,1-3.65,1.32,3.1,3.1,0,0,1-2.79-1.91,10.3,10.3,0,0,1-1-4.91q0-8.2,10.33-16a202.31,202.31,0,0,1,34.62-18.88q-11.35,16-19.51,25.25Z"/><path id="패스_390" data-name="패스 390" class="cls-3" d="M146.53,76.38a113.18,113.18,0,0,1,27.58-19.16A53.75,53.75,0,0,1,194.76,51a5.21,5.21,0,0,1,3.65,1.62,12.73,12.73,0,0,1,2.66,3.79,8.58,8.58,0,0,1,1,3.16,2.73,2.73,0,0,1-1.3,2.49,26.12,26.12,0,0,1-4.57,1.91c.44,1,1,2.27,1.69,3.83s1.21,2.81,1.56,3.78a7.39,7.39,0,0,1,.58,2.58,19.67,19.67,0,0,1-4.54,8.33c-3,4.09-5.14,7.08-6.35,9a13.23,13.23,0,0,0-1.83,7.11c0,4.62,2.11,6.91,6.36,6.91s11.18-4.09,20.48-12.26V99q-23.65,26.27-33.83,26.27a5.74,5.74,0,0,1-5.21-2.38,13,13,0,0,1-1.56-7.06A66.63,66.63,0,0,1,179,94.4Q165.27,109.55,158.63,116a18.3,18.3,0,0,1-10.94,6.4c-1.37,0-3.08-1.19-5.15-3.56a34.82,34.82,0,0,1-5.48-9.22,29.87,29.87,0,0,1-2.37-11.72,28,28,0,0,1,.83-7.35,17.83,17.83,0,0,1,3.31-6A77.75,77.75,0,0,1,146.53,76.38Zm44.8-10.28A202.57,202.57,0,0,0,156.71,85c-6.91,5.17-10.34,10.5-10.34,16a10.31,10.31,0,0,0,1,4.91,3.1,3.1,0,0,0,2.79,1.91,10.85,10.85,0,0,0,3.65-1.3A73.25,73.25,0,0,0,171.8,91.37q8.1-9.3,19.51-25.27Z"/><path id="패스_391" data-name="패스 391" d="M32.1,39.83a6.65,6.65,0,0,1,1.32-1,89.92,89.92,0,0,0-9.68,1.12c-2.44.4-4.29.71-5.58.88-.05.82-.09,1.63-.09,2.49a13.8,13.8,0,0,0,.13,1.82c2.46-1,4.86-2.08,7.19-3C27.39,41.36,29.63,40.58,32.1,39.83Z"/><path id="패스_392" data-name="패스 392" d="M51.87,38.75l-.24.32,1.3-.37C52.6,38.71,52.23,38.75,51.87,38.75Z"/><path id="패스_393" data-name="패스 393" d="M92.55,101.76a104.11,104.11,0,0,0,12.14-10.65,110.16,110.16,0,0,1-26,12.43,87.48,87.48,0,0,1-26.93,4.62,24.89,24.89,0,0,1-6.71-.73,73.7,73.7,0,0,1-10.18.73,30.55,30.55,0,0,1-5.57-.44,37.82,37.82,0,0,0-.79,8.49,19.26,19.26,0,0,0,.84,6.49,4.8,4.8,0,0,0,2.86,3l.21.07a118.55,118.55,0,0,0,25.91-6A126.18,126.18,0,0,0,92.55,101.76Z"/><path id="패스_394" data-name="패스 394" d="M53,7.9a150.89,150.89,0,0,0-16.36,6.82,60.51,60.51,0,0,0-10.52,6.22A23.62,23.62,0,0,0,18.4,37.75c.46-.24.92-.46,1.47-.72A128,128,0,0,1,32,32.17q7.2-2.55,15.25-4.63A105.54,105.54,0,0,1,62,24.68c-1.08,1.48-2.14,2.91-3.19,4.36,1.76-.52,3.5-1,5.32-1.5l1.1-.26c0-.36-.08-.66-.15-1-.24-1.28-.38-2-.38-2.11q6.63-.57,14.21-.58c2.33,0,4.51.11,6.62.29,3.28-.2,6.69-.29,10.28-.29a45.94,45.94,0,0,1,27.47,7c.33.24.63.53.95.8a43.18,43.18,0,0,0-1.65-5.13,38.64,38.64,0,0,0-9.49-14.07A42.86,42.86,0,0,0,97.79,3.19,57.72,57.72,0,0,0,85.33.49,104.83,104.83,0,0,0,73,2.36,159.24,159.24,0,0,0,53,7.9Z"/><path id="패스_395" data-name="패스 395" d="M133.76,75.54c1-1.69,2-3.41,2.81-5.13-2.31,1.85-4.62,3.85-7,6a81.87,81.87,0,0,0-7.77,8.14,18,18,0,0,0-3.27,6,21.77,21.77,0,0,0-.71,4.17A90.89,90.89,0,0,0,133.76,75.54Z"/><g id="그룹_35" data-name="그룹 35"><path id="패스_396" data-name="패스 396" class="cls-1" d="M156.69,85a22.14,22.14,0,0,0-10.23,14.71c-.06.42-.09.85-.11,1.27a10.31,10.31,0,0,0,1.05,4.91,3.11,3.11,0,0,0,2.37,1.85,3.32,3.32,0,0,0,.44.06,10.62,10.62,0,0,0,3.65-1.29c1.76-1,3.49-2.18,5.16-3.39a75.5,75.5,0,0,0,12.78-11.7c.8-.9,1.61-1.87,2.45-2.86q7.35-8.79,17.09-22.41c-3.28,1.5-6.34,2.95-9.24,4.36q-10.75,5.2-18,9.61A75.75,75.75,0,0,0,156.69,85Z"/><path id="패스_397" data-name="패스 397" class="cls-1" d="M146.46,99.69A22.18,22.18,0,0,1,156.69,85a88.92,88.92,0,0,1,7.41-4.92c3.19-4.14,6.63-8.78,10.32-14A201.2,201.2,0,0,0,139.8,85c-1,.79-2,1.6-2.93,2.42a15.13,15.13,0,0,0-1.34,3.12,26.77,26.77,0,0,0-.84,7.35,30,30,0,0,0,1.39,9,8.44,8.44,0,0,0,.86-.42A72.17,72.17,0,0,0,146.46,99.69Z"/><path id="패스_398" data-name="패스 398" class="cls-1" d="M193.64,105.54a8.94,8.94,0,0,1-2.24-.29,118.36,118.36,0,0,1-17.25,15.47,8.67,8.67,0,0,0,.93,2.17,5.72,5.72,0,0,0,5.21,2.38q10.19,0,33.83-26.27V93.31Q200.2,105.52,193.64,105.54Z"/><path id="패스_399" data-name="패스 399" class="cls-1" d="M187.53,100.92a10,10,0,0,1-.24-2.31,13.12,13.12,0,0,1,1.82-7.1c1.21-1.94,3.35-5,6.36-9A19.79,19.79,0,0,0,200,74.15a7.38,7.38,0,0,0-.57-2.57c-.38-1-.9-2.22-1.56-3.78S196.61,65,196.17,64a26.21,26.21,0,0,0,4.58-1.91,2.69,2.69,0,0,0,1.3-2.51,8.82,8.82,0,0,0-1-3.17,12.39,12.39,0,0,0-2.66-3.78A5.12,5.12,0,0,0,194.75,51a37.88,37.88,0,0,0-12.32,2.75,13.37,13.37,0,0,1,1.72,2.67,8.77,8.77,0,0,1,1,3.16,2.73,2.73,0,0,1-1.3,2.49A26.12,26.12,0,0,1,179.27,64c.43,1,1,2.27,1.69,3.83.44,1,.81,1.89,1.14,2.66,2.89-1.4,6-2.86,9.24-4.35q-9.74,13.65-17.09,22.4c-.81,1.17-1.51,2.2-2,3a13.16,13.16,0,0,0-1.82,7.11,8.62,8.62,0,0,0,.88,4.17c2.33-2.54,4.86-5.3,7.63-8.39-1.56,4.11-2.75,7.77-3.65,11a10.81,10.81,0,0,0,1.5.11A21.33,21.33,0,0,0,187.53,100.92Z"/><path id="패스_400" data-name="패스 400" class="cls-1" d="M159,103.08c-1.69,1.21-3.4,2.35-5.16,3.39a10.12,10.12,0,0,1-3.65,1.31,3.11,3.11,0,0,1-.44-.06q-4.84,5.15-8.05,8.24c-.26.27-.52.49-.79.75a26.52,26.52,0,0,0,1.62,2.11c2.09,2.38,3.77,3.57,5.15,3.57a15.38,15.38,0,0,0,9.06-4.69c0-.6-.09-1.19-.09-1.85A47,47,0,0,1,159,103.08Z"/><path id="패스_401" data-name="패스 401" d="M191.43,105.25a5.13,5.13,0,0,1-3.87-4.31,21.79,21.79,0,0,1-10.8,4.62,9.47,9.47,0,0,1-1.5-.11,41.62,41.62,0,0,0-1.69,10.39,17.11,17.11,0,0,0,.62,4.88A121.07,121.07,0,0,0,191.43,105.25Z"/><path id="패스_402" data-name="패스 402" d="M174.39,66.09c-3.69,5.21-7.12,9.83-10.31,14q7.26-4.4,18-9.62c-.3-.77-.68-1.65-1.14-2.66L179.23,64A25.9,25.9,0,0,0,183.81,62a2.7,2.7,0,0,0,1.3-2.49,8.77,8.77,0,0,0-1-3.16,11.93,11.93,0,0,0-1.72-2.67c-2.55,1-5.32,2.09-8.33,3.5a113.89,113.89,0,0,0-27.59,19.16,81.77,81.77,0,0,0-7.76,8.14,21.66,21.66,0,0,0-1.94,2.88c.9-.82,1.85-1.61,2.93-2.42A204.67,204.67,0,0,1,174.39,66.09Z"/><path id="패스_403" data-name="패스 403" d="M172.2,91.51c.52-.79,1.2-1.83,2-3-.84,1-1.65,2-2.45,2.86A75.88,75.88,0,0,1,159,103.06a46.76,46.76,0,0,0-2.35,12.73c0,.66,0,1.26.09,1.85.61-.52,1.23-1.1,1.87-1.71,3.08-3,7.32-7.4,12.65-13.18a8.85,8.85,0,0,1-.88-4.17A13.12,13.12,0,0,1,172.2,91.51Z"/><path id="패스_404" data-name="패스 404" d="M149.74,107.72a3.33,3.33,0,0,1-2.38-1.85,10.52,10.52,0,0,1-1-4.91c0-.42.05-.85.11-1.27a68.42,68.42,0,0,1-9.52,6.77l-.86.42c.29.92.61,1.82,1,2.73a37.7,37.7,0,0,0,3.83,7.1c.26-.24.52-.48.79-.75C143.82,113.9,146.53,111.15,149.74,107.72Z"/></g></svg>